<?xml version="1.0" encoding="utf-8"?>
<!-- Generator: Adobe Illustrator 21.1.0, SVG Export Plug-In . SVG Version: 6.00 Build 0)  -->
<svg version="1.1" id="Слой_1" xmlns="http://www.w3.org/2000/svg" xmlns:xlink="http://www.w3.org/1999/xlink" x="0px" y="0px"
	 viewBox="0 0 52 36" style="enable-background:new 0 0 52 36;" xml:space="preserve">
<style type="text/css">
	.st0{fill:#C7B299;}
</style>
<path class="st0" d="M51.4,14.3l-9.5,19.4C41.3,35,39.7,36,38.4,36H3.1c-1.3,0-2-1-1.4-2.2l9.5-19.4c0.6-1.2,2.2-2.2,3.5-2.2H50
	C51.4,12.1,52,13.1,51.4,14.3z M9,13.3L0.7,30.1V8c0-1.4,1.1-2.5,2.5-2.5H14V4.1c0-1,0.4-1.9,1.1-2.6c0.7-0.7,1.6-1.1,2.6-1.1H24
	c2,0,3.7,1.7,3.7,3.7v1.4h10.8C39.8,5.5,41,6.6,41,8v1.7H14.7C12.5,9.6,10,11.2,9,13.3z M16.5,5.5h8.8V4.1c0-0.7-0.5-1.2-1.2-1.2
	h-6.3c-0.3,0-0.6,0.1-0.9,0.4s-0.4,0.5-0.4,0.9V5.5z"/>
</svg>
