<?xml version="1.0" encoding="utf-8"?>
<!-- Generator: Adobe Illustrator 21.1.0, SVG Export Plug-In . SVG Version: 6.00 Build 0)  -->
<svg version="1.1" id="Слой_1" xmlns="http://www.w3.org/2000/svg" xmlns:xlink="http://www.w3.org/1999/xlink" x="0px" y="0px"
	 viewBox="0 0 44 44" style="enable-background:new 0 0 44 44;" xml:space="preserve">
<style type="text/css">
	.st0{fill:#C7B299;}
</style>
<path class="st0" d="M43.9,21.9c0-1.6-1.2-3.4-2.6-3.9s-2.8-1.8-3.2-2.7c-0.4-1-0.3-2.9,0.4-4.2c0.7-1.4,0.3-3.4-0.9-4.6
	c-1.1-1.1-3.2-1.5-4.6-0.9c-1.4,0.7-3.3,0.8-4.2,0.3c-1-0.4-2.2-1.8-2.7-3.2c-0.5-1.4-2.3-2.6-3.9-2.6c-1.6,0-3.3,1.2-3.9,2.6
	s-1.8,2.8-2.7,3.2c-1,0.4-2.9,0.3-4.2-0.3C9.9,4.9,7.9,5.3,6.7,6.4C5.6,7.6,5.2,9.6,5.8,11s0.8,3.3,0.3,4.2c-0.4,1-1.8,2.2-3.2,2.7
	s-2.6,2.2-2.6,3.9c0,1.6,1.2,3.4,2.6,3.9c1.4,0.5,2.8,1.8,3.2,2.7c0.4,1,0.3,2.8-0.4,4.2s-0.3,3.4,0.9,4.6c1.1,1.1,3.2,1.5,4.6,0.9
	c1.4-0.6,3.3-0.8,4.2-0.3s2.2,1.8,2.7,3.2c0.5,1.4,2.2,2.6,3.9,2.6c1.6,0,3.4-1.2,3.9-2.6c0.5-1.4,1.8-2.8,2.7-3.2
	c1-0.4,2.9-0.3,4.2,0.3c1.4,0.7,3.4,0.3,4.6-0.9c1.1-1.1,1.5-3.2,0.9-4.6c-0.7-1.4-0.8-3.3-0.4-4.2c0.4-1,1.8-2.2,3.2-2.7
	C42.8,25.2,43.9,23.5,43.9,21.9z M22.1,29.8c-4.4,0-8-3.6-8-8c0-4.4,3.6-8,8-8c4.4,0,8,3.6,8,8C30.1,26.3,26.5,29.8,22.1,29.8z"/>
</svg>
