<?xml version="1.0" encoding="utf-8"?>
<!-- Generator: Adobe Illustrator 15.0.0, SVG Export Plug-In . SVG Version: 6.00 Build 0)  -->
<!DOCTYPE svg PUBLIC "-//W3C//DTD SVG 1.1//EN" "http://www.w3.org/Graphics/SVG/1.1/DTD/svg11.dtd">
<svg version="1.1" id="Слой_1" xmlns="http://www.w3.org/2000/svg" xmlns:xlink="http://www.w3.org/1999/xlink" x="0px" y="0px"
	 width="18px" height="24px" viewBox="0 0 18 24" enable-background="new 0 0 18 24" xml:space="preserve">
<path fill="#CC9966" stroke="#D3A16E" stroke-miterlimit="10" d="M15,3h-1.5c0-1.66-2.02-3-4.5-3C6.51,0,4.5,1.34,4.5,3H3
	C1.35,3,0,4.34,0,6v15c0,1.65,1.35,2.99,3,2.99h12c1.65,0,2.99-1.34,2.99-2.99V6C17.99,4.34,16.65,3,15,3z M9,1.5
	c1.66,0,3,0.46,3,1.5H6C6,1.96,7.34,1.5,9,1.5z M16.49,21c0,0.82-0.67,1.49-1.49,1.49H3c-0.83,0-1.5-0.67-1.5-1.49v-1.5h14.99V21z
	 M16.49,18H1.5V6c0-0.83,0.67-1.5,1.5-1.5h1.5V9H6V4.5h6V9h1.5V4.5H15c0.82,0,1.49,0.67,1.49,1.5V18z"/>
</svg>
