<?xml version="1.0" encoding="utf-8"?>
<!-- Generator: Adobe Illustrator 15.0.0, SVG Export Plug-In . SVG Version: 6.00 Build 0)  -->
<!DOCTYPE svg PUBLIC "-//W3C//DTD SVG 1.1//EN" "http://www.w3.org/Graphics/SVG/1.1/DTD/svg11.dtd">
<svg version="1.1" id="Слой_1" xmlns="http://www.w3.org/2000/svg" xmlns:xlink="http://www.w3.org/1999/xlink" x="0px" y="0px"
	 width="181px" height="56px" viewBox="0 0 181 56" enable-background="new 0 0 181 56" xml:space="preserve">
<g>
	<path fill="#FFFFFF" d="M52.87,55.13l5.26-9.19l5.25,9.19H52.87z M46.3,45.17h10.51l-5.25,9.189L46.3,45.17z M51.56,34.45
		l5.25,9.19H46.3L51.56,34.45z M39.74,33.689h10.5l-5.25,9.181L39.74,33.689z M44.99,22.97l5.25,9.18h-10.5L44.99,22.97z
		 M33.17,22.2h10.51l-5.26,9.19L33.17,22.2z M38.42,11.48l5.26,9.19H33.17L38.42,11.48z M26.6,10.71h10.51l-5.26,9.19L26.6,10.71z
		 M31.85-0.01l5.26,9.19H26.6L31.85-0.01z M20.03,20.67l5.26-9.19l5.25,9.19H20.03z M13.46,32.15l5.26-9.18l5.25,9.18H13.46z
		 M6.9,43.641l5.25-9.19l5.25,9.19H6.9z M0.33,55.13l5.25-9.19l5.26,9.19H0.33z M17.4,45.17l-5.25,9.189L6.9,45.17H17.4z
		 M23.97,33.689l-5.25,9.181l-5.26-9.181H23.97z M30.54,22.2l-5.25,9.19l-5.26-9.19H30.54z M37.11,55.13H26.6l5.25-9.19L37.11,55.13
		z M43.68,45.17l-5.26,9.189l-5.25-9.189H43.68z M50.24,55.13h-10.5l5.25-9.19L50.24,55.13z"/>
	<g enable-background="new    ">
		<path fill="#FFFFFF" d="M74.624,16.03h2.244l3.4,8.567l3.434-8.567h2.278l-4.216,10.302l4.624,10.915l8.738-21.386h2.584
			L87.476,40h-2.108l-5.066-11.934L75.202,40h-2.074l-10.2-24.14h2.55l8.772,21.386l4.59-10.915L74.624,16.03z"/>
	</g>
	<g enable-background="new    ">
		<path fill="#FFFFFF" d="M102.934,40.34c-0.838,0-1.614-0.143-2.328-0.426c-0.715-0.283-1.338-0.674-1.87-1.172
			c-0.533-0.498-0.946-1.082-1.241-1.752c-0.295-0.668-0.441-1.389-0.441-2.158c0-0.771,0.181-1.484,0.543-2.143
			c0.363-0.656,0.873-1.225,1.53-1.699c0.657-0.477,1.439-0.846,2.347-1.105c0.906-0.26,1.903-0.391,2.992-0.391
			c0.906,0,1.824,0.078,2.754,0.238c0.929,0.158,1.756,0.385,2.481,0.68v-1.598c0-1.565-0.442-2.806-1.326-3.724
			s-2.108-1.377-3.672-1.377c-0.907,0-1.836,0.182-2.788,0.544c-0.951,0.363-1.916,0.884-2.89,1.564l-0.816-1.53
			c2.29-1.541,4.511-2.312,6.664-2.312c2.222,0,3.966,0.623,5.236,1.869c1.269,1.247,1.903,2.97,1.903,5.168v7.99
			c0,0.635,0.283,0.951,0.851,0.951V40c-0.386,0.068-0.681,0.102-0.884,0.102c-0.59,0-1.049-0.146-1.377-0.441
			c-0.329-0.295-0.505-0.703-0.527-1.225l-0.068-1.395c-0.816,1.066-1.842,1.883-3.076,2.449
			C105.693,40.057,104.362,40.34,102.934,40.34z M103.479,38.572c1.201,0,2.306-0.227,3.314-0.682
			c1.008-0.453,1.773-1.053,2.295-1.801c0.204-0.205,0.357-0.426,0.459-0.664c0.103-0.236,0.153-0.459,0.153-0.662v-2.891
			c-0.771-0.293-1.569-0.521-2.397-0.68c-0.827-0.158-1.672-0.238-2.533-0.238c-1.631,0-2.957,0.34-3.978,1.02
			c-1.021,0.682-1.53,1.576-1.53,2.688c0,0.543,0.107,1.053,0.323,1.529s0.511,0.891,0.884,1.24
			c0.375,0.354,0.822,0.629,1.344,0.834C102.334,38.469,102.889,38.572,103.479,38.572z"/>
	</g>
	<g enable-background="new    ">
		<path fill="#FFFFFF" d="M117.952,22.286l5.304,6.935l0.271,0.512l0.272-0.512l5.304-6.935h2.482l-6.766,8.908L131.586,40h-2.482
			l-5.304-6.902l-0.272-0.477l-0.271,0.477L117.952,40h-2.482l6.767-8.807l-6.767-8.908H117.952z"/>
	</g>
	<g enable-background="new    ">
		<path fill="#FFFFFF" d="M140.438,40.34c-1.291,0-2.471-0.244-3.535-0.73c-1.066-0.488-1.989-1.15-2.771-1.99
			c-0.782-0.838-1.389-1.813-1.818-2.924c-0.432-1.109-0.646-2.277-0.646-3.502c0-1.246,0.221-2.426,0.662-3.536
			c0.443-1.11,1.055-2.085,1.837-2.924s1.705-1.508,2.771-2.007c1.065-0.498,2.232-0.747,3.502-0.747s2.442,0.249,3.52,0.747
			c1.076,0.499,2.006,1.168,2.787,2.007c0.783,0.839,1.395,1.813,1.837,2.924c0.442,1.11,0.663,2.29,0.663,3.536
			c0,1.225-0.216,2.393-0.646,3.502c-0.431,1.111-1.037,2.086-1.818,2.924c-0.782,0.84-1.712,1.502-2.789,1.99
			C142.914,40.096,141.73,40.34,140.438,40.34z M134.012,31.227c0,0.998,0.17,1.922,0.51,2.771s0.799,1.598,1.377,2.244
			s1.258,1.15,2.041,1.514c0.781,0.363,1.614,0.543,2.498,0.543c0.885,0,1.717-0.186,2.5-0.561c0.781-0.373,1.467-0.883,2.057-1.529
			c0.589-0.646,1.054-1.4,1.394-2.262c0.341-0.861,0.511-1.791,0.511-2.787c0-0.975-0.17-1.898-0.511-2.772
			c-0.34-0.872-0.805-1.632-1.394-2.277c-0.59-0.646-1.275-1.156-2.057-1.53c-0.783-0.374-1.615-0.562-2.5-0.562
			c-0.884,0-1.711,0.188-2.481,0.562s-1.451,0.89-2.04,1.547c-0.59,0.658-1.055,1.423-1.395,2.295
			C134.182,29.295,134.012,30.23,134.012,31.227z"/>
	</g>
	<g enable-background="new    ">
		<path fill="#FFFFFF" d="M177.54,40h-2.312v-9.895c0-2.062-0.329-3.582-0.986-4.556c-0.658-0.974-1.632-1.462-2.924-1.462
			c-0.68,0-1.32,0.125-1.922,0.374c-0.6,0.25-1.155,0.601-1.666,1.054c-0.51,0.454-0.957,0.992-1.342,1.615
			c-0.387,0.624-0.681,1.31-0.885,2.057V40h-2.313v-9.895c0-2.108-0.316-3.638-0.951-4.59c-0.635-0.951-1.609-1.428-2.924-1.428
			c-1.338,0-2.527,0.465-3.57,1.395s-1.791,2.153-2.244,3.672V40h-2.313V22.286h2.109v4.012c0.725-1.359,1.676-2.419,2.855-3.179
			c1.178-0.76,2.482-1.139,3.91-1.139c1.496,0,2.691,0.419,3.587,1.258s1.444,1.938,1.649,3.298
			c1.654-3.037,3.932-4.556,6.834-4.556c0.996,0,1.841,0.182,2.532,0.544s1.247,0.878,1.666,1.547s0.726,1.474,0.918,2.414
			s0.289,1.988,0.289,3.144V40z"/>
	</g>
</g>
</svg>
