<?xml version="1.0" encoding="utf-8"?>
<!-- Generator: Adobe Illustrator 21.1.0, SVG Export Plug-In . SVG Version: 6.00 Build 0)  -->
<svg version="1.1" id="Слой_1" xmlns="http://www.w3.org/2000/svg" xmlns:xlink="http://www.w3.org/1999/xlink" x="0px" y="0px"
	 viewBox="0 0 49 49" style="enable-background:new 0 0 49 49;" xml:space="preserve">
<style type="text/css">
	.st0{fill:#555555;}
</style>
<path class="st0" d="M47.7,19.7L33.4,34L0.5,48.5L15,15.6L29.3,1.3c0.6-0.6,1.6-0.6,2.3,0c0.6,0.6,0.6,1.6,0,2.3L17.7,17.4L9.1,36.9
	l3,3l19.5-8.6l13.8-13.8c0.6-0.6,1.6-0.6,2.3,0C48.3,18.1,48.3,19.1,47.7,19.7z M29.8,28.5c-0.3,0.3-0.7,0.5-1.1,0.5
	c-0.4,0-0.8-0.2-1.1-0.5c-0.6-0.6-0.6-1.6,0-2.3l13.3-13.3c0.6-0.6,1.6-0.6,2.3,0c0.6,0.6,0.6,1.6,0,2.3L29.8,28.5z M26.3,25
	c-0.3,0.3-0.7,0.5-1.1,0.5S24.3,25.3,24,25c-0.6-0.6-0.6-1.6,0-2.3L37.3,9.4c0.6-0.6,1.6-0.6,2.3,0c0.6,0.6,0.6,1.6,0,2.3L26.3,25z
	 M22.8,21.5c-0.3,0.3-0.7,0.5-1.1,0.5s-0.8-0.2-1.1-0.5c-0.6-0.6-0.6-1.6,0-2.3L33.9,5.9c0.6-0.6,1.6-0.6,2.3,0
	c0.6,0.6,0.6,1.6,0,2.3L22.8,21.5z"/>
</svg>
